<?xml version="1.0" encoding="utf-8"?>
<!-- Generator: Adobe Illustrator 17.0.0, SVG Export Plug-In . SVG Version: 6.00 Build 0)  -->
<!DOCTYPE svg PUBLIC "-//W3C//DTD SVG 1.1//EN" "http://www.w3.org/Graphics/SVG/1.1/DTD/svg11.dtd">
<svg version="1.1" id="Capa_1" xmlns="http://www.w3.org/2000/svg" xmlns:xlink="http://www.w3.org/1999/xlink" x="0px" y="0px"
	 width="51px" height="80.667px" viewBox="0 0 51 80.667" enable-background="new 0 0 51 80.667" xml:space="preserve">
<g>
	<g>
		<path fill="#F2F2F2" d="M23.894,3.955c1.13,24.529,2.26,49.058,3.39,73.587c0.089,1.926,3.089,1.935,3,0
			c-1.13-24.529-2.26-49.058-3.39-73.587C26.805,2.029,23.805,2.02,23.894,3.955L23.894,3.955z"/>
	</g>
</g>
<g>
	<g>
		<path fill="#F2F2F2" d="M2.804,59.057c8.337,6.495,16.674,12.99,25.011,19.486c0.761,0.593,1.806,0.597,2.356-0.304
			c5.774-9.461,12.483-18.202,20.131-26.225c1.334-1.399-0.784-3.524-2.121-2.121c-7.822,8.205-14.695,17.155-20.601,26.832
			c0.785-0.101,1.571-0.202,2.356-0.304c-8.337-6.495-16.674-12.99-25.011-19.486C3.419,55.762,1.279,57.869,2.804,59.057
			L2.804,59.057z"/>
	</g>
</g>
</svg>
