<svg id="Capa_1" data-name="Capa 1" xmlns="http://www.w3.org/2000/svg" viewBox="0 0 302 76"><defs><style>.cls-1{fill:#fff;}.cls-2{fill:#0c3d98;}</style></defs><title>logo oktubre</title><path class="cls-1" d="M13.39,53.05V6h37v47ZM36.91,39.61V19.45H26.83V39.61Z"/><path class="cls-1" d="M53.71,53.05V6H67.15V26.17L77.23,6H90.67L78.91,29.53,90.67,53.05H77.23L72.19,43l-5,10.08Z"/><path class="cls-2" d="M105.79,53.05V19.45H94V6h37V19.45H119.23v33.6Z"/><path class="cls-2" d="M134.35,53.05V6h13.44v33.6h10.08V6h13.45v47Z"/><path class="cls-2" d="M174.68,53.05V6h37V26.17L210,29.53l1.68,3.36V53.05ZM198.2,22.81V19.45H188.12v3.36Zm0,16.8V36.25H188.12v3.36Z"/><path class="cls-2" d="M215,53.05V22.81h8.4L215,6h37V36.25h-8.4l8.4,16.8H238.52l-8.4-16.8h-1.68v16.8Zm23.52-30.24V19.45h-3.36l1.68,3.36Z"/><path class="cls-1" d="M255.32,53.05V6h37V19.45H268.76v3.36h20.16V36.25H268.76v3.36h23.52V53.05Z"/><path class="cls-1" d="M239.75,62.06h-1.81V55h5.59v1.41h-3.78v1.66h3v1.41h-3Z"/><path class="cls-1" d="M251,58.13l-1.41,2.52h-1.41l-1.41-2.52v3.93H245V55h1.91l2,3.73,2-3.73h1.91v7.05H251Z"/><path class="cls-1" d="M268,66a3.49,3.49,0,0,1-4,4h-4.85a3.48,3.48,0,0,1-4-4v-.21a4.75,4.75,0,0,1,.22-1.53,4,4,0,0,1,.57-1.13,2.79,2.79,0,0,1,.8-.74,3.5,3.5,0,0,1,.94-.4,3.05,3.05,0,0,1-1.53-1.11,3.39,3.39,0,0,1-.58-2.06V58.6a3.81,3.81,0,0,1,1-2.86,4.23,4.23,0,0,1,3-.94h4a4.23,4.23,0,0,1,3,.94,3.81,3.81,0,0,1,1,2.86v.21a3.39,3.39,0,0,1-.58,2.06A3.05,3.05,0,0,1,265.5,62a3.73,3.73,0,0,1,.93.4,2.7,2.7,0,0,1,.81.74,3.53,3.53,0,0,1,.57,1.13,4.73,4.73,0,0,1,.23,1.53Zm-7.82-2.11A1.11,1.11,0,0,0,259,65.14V66A1,1,0,0,0,260,67h3.17A1,1,0,0,0,264.23,66v-.85A1.11,1.11,0,0,0,263,63.88Zm.43-6.12A1.12,1.12,0,0,0,259.38,59v.63a1.12,1.12,0,0,0,1.27,1.27h1.9a1.12,1.12,0,0,0,1.26-1.27V59a1.11,1.11,0,0,0-1.26-1.26Z"/><path class="cls-1" d="M276.61,64.09c-.41.08-.83.15-1.25.21s-.76.1-1.17.15-.81.06-1.17.06h-1.48a3,3,0,0,1-3.17-3.17V58.6a3.85,3.85,0,0,1,1-2.86,4.23,4.23,0,0,1,3-.94h4a4.29,4.29,0,0,1,3,.93,3.84,3.84,0,0,1,1,2.85v7.36a4.16,4.16,0,0,1-1,3,4.2,4.2,0,0,1-3,1h-2.25a13.44,13.44,0,0,1-2.27-.19,18.23,18.23,0,0,1-2.45-.17V66.72l2.3.24h3.82a1,1,0,0,0,.77-.28,1,1,0,0,0,.29-.75Zm0-5.07a1.12,1.12,0,0,0-1.27-1.26h-1.9A1.11,1.11,0,0,0,272.17,59v1.77a.7.7,0,0,0,.21.52.72.72,0,0,0,.53.21h2a5.08,5.08,0,0,0,.82,0c.28,0,.56-.07.83-.12Z"/><path class="cls-1" d="M281.17,66.62H285v3.17h-3.8Z"/><path class="cls-1" d="M288.37,69.79V58.28l-2.43.85-1.06-2.43L288.79,55h3.38V69.79Z"/></svg>